<mxfile host="app.diagrams.net" agent="Mozilla/5.0 (Windows NT 10.0; Win64; x64) AppleWebKit/537.36 (KHTML, like Gecko) Chrome/131.0.0.0 Safari/537.36" version="24.9.3">
  <diagram name="Página-1" id="1-bsAJybU4CAWj2IOjZU">
    <mxGraphModel dx="1566" dy="648" grid="1" gridSize="10" guides="1" tooltips="1" connect="1" arrows="1" fold="1" page="1" pageScale="1" pageWidth="827" pageHeight="1169" math="0" shadow="0">
      <root>
        <mxCell id="0" />
        <mxCell id="1" parent="0" />
        <mxCell id="gSGYzmzYV6SwLATnWGjw-1" value="Produto" style="swimlane;fontStyle=1;align=center;verticalAlign=top;childLayout=stackLayout;horizontal=1;startSize=26;horizontalStack=0;resizeParent=1;resizeParentMax=0;resizeLast=0;collapsible=1;marginBottom=0;whiteSpace=wrap;html=1;" vertex="1" parent="1">
          <mxGeometry x="40" y="560" width="160" height="188" as="geometry" />
        </mxCell>
        <mxCell id="gSGYzmzYV6SwLATnWGjw-2" value="+ categoria: string&lt;div&gt;+ nome: string&lt;br&gt;+ preço: int&lt;div style=&quot;forced-color-adjust: none;&quot;&gt;+ cod_único: string&lt;br&gt;+ data_vencimento: string&lt;/div&gt;&lt;div style=&quot;forced-color-adjust: none;&quot;&gt;+ data_fabricação: string&lt;/div&gt;&lt;/div&gt;" style="text;strokeColor=none;fillColor=none;align=left;verticalAlign=top;spacingLeft=4;spacingRight=4;overflow=hidden;rotatable=0;points=[[0,0.5],[1,0.5]];portConstraint=eastwest;whiteSpace=wrap;html=1;" vertex="1" parent="gSGYzmzYV6SwLATnWGjw-1">
          <mxGeometry y="26" width="160" height="94" as="geometry" />
        </mxCell>
        <mxCell id="gSGYzmzYV6SwLATnWGjw-3" value="" style="line;strokeWidth=1;fillColor=none;align=left;verticalAlign=middle;spacingTop=-1;spacingLeft=3;spacingRight=3;rotatable=0;labelPosition=right;points=[];portConstraint=eastwest;strokeColor=inherit;" vertex="1" parent="gSGYzmzYV6SwLATnWGjw-1">
          <mxGeometry y="120" width="160" height="18" as="geometry" />
        </mxCell>
        <mxCell id="gSGYzmzYV6SwLATnWGjw-4" value="+ Ordenar_Produtos():&amp;nbsp;&lt;div&gt;+ Calcular_preco():&amp;nbsp;&lt;/div&gt;" style="text;strokeColor=none;fillColor=none;align=left;verticalAlign=top;spacingLeft=4;spacingRight=4;overflow=hidden;rotatable=0;points=[[0,0.5],[1,0.5]];portConstraint=eastwest;whiteSpace=wrap;html=1;" vertex="1" parent="gSGYzmzYV6SwLATnWGjw-1">
          <mxGeometry y="138" width="160" height="50" as="geometry" />
        </mxCell>
        <mxCell id="gSGYzmzYV6SwLATnWGjw-5" value="Cliente" style="swimlane;fontStyle=1;align=center;verticalAlign=top;childLayout=stackLayout;horizontal=1;startSize=26;horizontalStack=0;resizeParent=1;resizeParentMax=0;resizeLast=0;collapsible=1;marginBottom=0;whiteSpace=wrap;html=1;" vertex="1" parent="1">
          <mxGeometry x="400" y="280" width="260" height="180" as="geometry" />
        </mxCell>
        <mxCell id="gSGYzmzYV6SwLATnWGjw-6" value="&lt;div style=&quot;forced-color-adjust: none;&quot;&gt;+ cpd_único: string&lt;br&gt;+ nome: string&lt;/div&gt;&lt;div style=&quot;forced-color-adjust: none;&quot;&gt;+ endereco: string&lt;/div&gt;&lt;div style=&quot;forced-color-adjust: none;&quot;&gt;+ telefone:&amp;nbsp;&lt;/div&gt;&lt;div style=&quot;forced-color-adjust: none;&quot;&gt;+ filiação: string&lt;/div&gt;&lt;div style=&quot;forced-color-adjust: none;&quot;&gt;+ status_cliente:&lt;/div&gt;&lt;div style=&quot;forced-color-adjust: none;&quot;&gt;+ limite_credito: double&lt;/div&gt;" style="text;strokeColor=none;fillColor=none;align=left;verticalAlign=top;spacingLeft=4;spacingRight=4;overflow=hidden;rotatable=0;points=[[0,0.5],[1,0.5]];portConstraint=eastwest;whiteSpace=wrap;html=1;" vertex="1" parent="gSGYzmzYV6SwLATnWGjw-5">
          <mxGeometry y="26" width="260" height="104" as="geometry" />
        </mxCell>
        <mxCell id="gSGYzmzYV6SwLATnWGjw-7" value="" style="line;strokeWidth=1;fillColor=none;align=left;verticalAlign=middle;spacingTop=-1;spacingLeft=3;spacingRight=3;rotatable=0;labelPosition=right;points=[];portConstraint=eastwest;strokeColor=inherit;" vertex="1" parent="gSGYzmzYV6SwLATnWGjw-5">
          <mxGeometry y="130" width="260" height="8" as="geometry" />
        </mxCell>
        <mxCell id="gSGYzmzYV6SwLATnWGjw-8" value="+ Localizar_Cliente():&amp;nbsp;&lt;div&gt;+ Selecionar_Clientes_que_mais_Compram():&lt;/div&gt;" style="text;strokeColor=none;fillColor=none;align=left;verticalAlign=top;spacingLeft=4;spacingRight=4;overflow=hidden;rotatable=0;points=[[0,0.5],[1,0.5]];portConstraint=eastwest;whiteSpace=wrap;html=1;" vertex="1" parent="gSGYzmzYV6SwLATnWGjw-5">
          <mxGeometry y="138" width="260" height="42" as="geometry" />
        </mxCell>
        <mxCell id="gSGYzmzYV6SwLATnWGjw-9" value="Sistema da Empresa" style="swimlane;fontStyle=1;align=center;verticalAlign=top;childLayout=stackLayout;horizontal=1;startSize=26;horizontalStack=0;resizeParent=1;resizeParentMax=0;resizeLast=0;collapsible=1;marginBottom=0;whiteSpace=wrap;html=1;" vertex="1" parent="1">
          <mxGeometry x="240" y="120" width="160" height="84" as="geometry" />
        </mxCell>
        <mxCell id="gSGYzmzYV6SwLATnWGjw-10" value="&lt;div style=&quot;forced-color-adjust: none;&quot;&gt;&lt;br&gt;&lt;/div&gt;" style="text;strokeColor=none;fillColor=none;align=left;verticalAlign=top;spacingLeft=4;spacingRight=4;overflow=hidden;rotatable=0;points=[[0,0.5],[1,0.5]];portConstraint=eastwest;whiteSpace=wrap;html=1;" vertex="1" parent="gSGYzmzYV6SwLATnWGjw-9">
          <mxGeometry y="26" width="160" height="24" as="geometry" />
        </mxCell>
        <mxCell id="gSGYzmzYV6SwLATnWGjw-11" value="" style="line;strokeWidth=1;fillColor=none;align=left;verticalAlign=middle;spacingTop=-1;spacingLeft=3;spacingRight=3;rotatable=0;labelPosition=right;points=[];portConstraint=eastwest;strokeColor=inherit;" vertex="1" parent="gSGYzmzYV6SwLATnWGjw-9">
          <mxGeometry y="50" width="160" height="8" as="geometry" />
        </mxCell>
        <mxCell id="gSGYzmzYV6SwLATnWGjw-12" value="+ Calcular_Lucro(): double" style="text;strokeColor=none;fillColor=none;align=left;verticalAlign=top;spacingLeft=4;spacingRight=4;overflow=hidden;rotatable=0;points=[[0,0.5],[1,0.5]];portConstraint=eastwest;whiteSpace=wrap;html=1;" vertex="1" parent="gSGYzmzYV6SwLATnWGjw-9">
          <mxGeometry y="58" width="160" height="26" as="geometry" />
        </mxCell>
        <mxCell id="gSGYzmzYV6SwLATnWGjw-17" value="" style="endArrow=none;html=1;edgeStyle=orthogonalEdgeStyle;rounded=0;exitX=1;exitY=0.5;exitDx=0;exitDy=0;entryX=0;entryY=0.404;entryDx=0;entryDy=0;entryPerimeter=0;" edge="1" parent="1">
          <mxGeometry relative="1" as="geometry">
            <mxPoint x="200" y="350" as="sourcePoint" />
            <mxPoint x="399.9999999999998" y="350.0160000000001" as="targetPoint" />
          </mxGeometry>
        </mxCell>
        <mxCell id="gSGYzmzYV6SwLATnWGjw-18" value="1..*" style="edgeLabel;resizable=0;html=1;align=left;verticalAlign=bottom;" connectable="0" vertex="1" parent="gSGYzmzYV6SwLATnWGjw-17">
          <mxGeometry x="-1" relative="1" as="geometry">
            <mxPoint as="offset" />
          </mxGeometry>
        </mxCell>
        <mxCell id="gSGYzmzYV6SwLATnWGjw-19" value="1" style="edgeLabel;resizable=0;html=1;align=right;verticalAlign=bottom;" connectable="0" vertex="1" parent="gSGYzmzYV6SwLATnWGjw-17">
          <mxGeometry x="1" relative="1" as="geometry">
            <mxPoint x="-1" as="offset" />
          </mxGeometry>
        </mxCell>
        <mxCell id="gSGYzmzYV6SwLATnWGjw-21" value="Pedido" style="swimlane;fontStyle=1;align=center;verticalAlign=top;childLayout=stackLayout;horizontal=1;startSize=26;horizontalStack=0;resizeParent=1;resizeParentMax=0;resizeLast=0;collapsible=1;marginBottom=0;whiteSpace=wrap;html=1;" vertex="1" parent="1">
          <mxGeometry x="40" y="260" width="160" height="168" as="geometry" />
        </mxCell>
        <mxCell id="gSGYzmzYV6SwLATnWGjw-22" value="+ numero: int&lt;div&gt;+ data_elaboracao: string&lt;/div&gt;&lt;div&gt;+ quant_produto: int&lt;/div&gt;&lt;div&gt;+ valor_total: double&lt;/div&gt;" style="text;strokeColor=none;fillColor=none;align=left;verticalAlign=top;spacingLeft=4;spacingRight=4;overflow=hidden;rotatable=0;points=[[0,0.5],[1,0.5]];portConstraint=eastwest;whiteSpace=wrap;html=1;" vertex="1" parent="gSGYzmzYV6SwLATnWGjw-21">
          <mxGeometry y="26" width="160" height="74" as="geometry" />
        </mxCell>
        <mxCell id="gSGYzmzYV6SwLATnWGjw-23" value="" style="line;strokeWidth=1;fillColor=none;align=left;verticalAlign=middle;spacingTop=-1;spacingLeft=3;spacingRight=3;rotatable=0;labelPosition=right;points=[];portConstraint=eastwest;strokeColor=inherit;" vertex="1" parent="gSGYzmzYV6SwLATnWGjw-21">
          <mxGeometry y="100" width="160" height="18" as="geometry" />
        </mxCell>
        <mxCell id="gSGYzmzYV6SwLATnWGjw-24" value="+ Consultar_Pedidos():&amp;nbsp;&lt;div&gt;+ Totalizar_Pedido():&amp;nbsp;&lt;/div&gt;" style="text;strokeColor=none;fillColor=none;align=left;verticalAlign=top;spacingLeft=4;spacingRight=4;overflow=hidden;rotatable=0;points=[[0,0.5],[1,0.5]];portConstraint=eastwest;whiteSpace=wrap;html=1;" vertex="1" parent="gSGYzmzYV6SwLATnWGjw-21">
          <mxGeometry y="118" width="160" height="50" as="geometry" />
        </mxCell>
        <mxCell id="gSGYzmzYV6SwLATnWGjw-30" value="" style="endArrow=none;html=1;edgeStyle=orthogonalEdgeStyle;rounded=0;exitX=1;exitY=0.5;exitDx=0;exitDy=0;entryX=0.5;entryY=0;entryDx=0;entryDy=0;" edge="1" parent="1" target="gSGYzmzYV6SwLATnWGjw-5">
          <mxGeometry relative="1" as="geometry">
            <mxPoint x="400" y="150" as="sourcePoint" />
            <mxPoint x="530" y="270" as="targetPoint" />
            <Array as="points">
              <mxPoint x="530" y="150" />
            </Array>
          </mxGeometry>
        </mxCell>
        <mxCell id="gSGYzmzYV6SwLATnWGjw-31" value="1" style="edgeLabel;resizable=0;html=1;align=left;verticalAlign=bottom;" connectable="0" vertex="1" parent="gSGYzmzYV6SwLATnWGjw-30">
          <mxGeometry x="-1" relative="1" as="geometry">
            <mxPoint as="offset" />
          </mxGeometry>
        </mxCell>
        <mxCell id="gSGYzmzYV6SwLATnWGjw-32" value="1..*" style="edgeLabel;resizable=0;html=1;align=right;verticalAlign=bottom;" connectable="0" vertex="1" parent="gSGYzmzYV6SwLATnWGjw-30">
          <mxGeometry x="1" relative="1" as="geometry">
            <mxPoint x="-10" as="offset" />
          </mxGeometry>
        </mxCell>
        <mxCell id="gSGYzmzYV6SwLATnWGjw-33" value="1" style="endArrow=none;html=1;endSize=12;startArrow=diamondThin;startSize=14;startFill=0;edgeStyle=orthogonalEdgeStyle;align=left;verticalAlign=bottom;rounded=0;endFill=0;entryX=0.5;entryY=0;entryDx=0;entryDy=0;" edge="1" parent="1">
          <mxGeometry x="-0.6769" y="10" relative="1" as="geometry">
            <mxPoint x="120" y="429" as="sourcePoint" />
            <mxPoint x="120" y="559" as="targetPoint" />
            <mxPoint as="offset" />
          </mxGeometry>
        </mxCell>
        <mxCell id="gSGYzmzYV6SwLATnWGjw-36" value="&lt;span style=&quot;color: rgb(0, 0, 0); font-family: Helvetica; font-size: 11px; font-style: normal; font-variant-ligatures: normal; font-variant-caps: normal; font-weight: 400; letter-spacing: normal; orphans: 2; text-align: left; text-indent: 0px; text-transform: none; widows: 2; word-spacing: 0px; -webkit-text-stroke-width: 0px; white-space: nowrap; background-color: rgb(255, 255, 255); text-decoration-thickness: initial; text-decoration-style: initial; text-decoration-color: initial; display: inline !important; float: none;&quot;&gt;1..*&lt;/span&gt;" style="text;whiteSpace=wrap;html=1;" vertex="1" parent="1">
          <mxGeometry x="130" y="520" width="40" height="40" as="geometry" />
        </mxCell>
        <mxCell id="gSGYzmzYV6SwLATnWGjw-51" value="&lt;p style=&quot;margin:0px;margin-top:4px;text-align:center;&quot;&gt;&lt;b&gt;Sabão em Pó&lt;/b&gt;&lt;/p&gt;&lt;hr size=&quot;1&quot; style=&quot;border-style:solid;&quot;&gt;&lt;p style=&quot;margin:0px;margin-left:4px;&quot;&gt;+ field: Type&lt;/p&gt;&lt;hr size=&quot;1&quot; style=&quot;border-style:solid;&quot;&gt;&lt;p style=&quot;margin:0px;margin-left:4px;&quot;&gt;+ method(): Type&lt;/p&gt;" style="verticalAlign=top;align=left;overflow=fill;html=1;whiteSpace=wrap;" vertex="1" parent="1">
          <mxGeometry x="410" y="510" width="160" height="90" as="geometry" />
        </mxCell>
        <mxCell id="gSGYzmzYV6SwLATnWGjw-52" value="&lt;p style=&quot;margin:0px;margin-top:4px;text-align:center;&quot;&gt;&lt;b&gt;Detergente&lt;/b&gt;&lt;/p&gt;&lt;hr size=&quot;1&quot; style=&quot;border-style:solid;&quot;&gt;&lt;p style=&quot;margin:0px;margin-left:4px;&quot;&gt;+ field: Type&lt;/p&gt;&lt;hr size=&quot;1&quot; style=&quot;border-style:solid;&quot;&gt;&lt;p style=&quot;margin:0px;margin-left:4px;&quot;&gt;+ method(): Type&lt;/p&gt;" style="verticalAlign=top;align=left;overflow=fill;html=1;whiteSpace=wrap;" vertex="1" parent="1">
          <mxGeometry x="410" y="640" width="160" height="90" as="geometry" />
        </mxCell>
        <mxCell id="gSGYzmzYV6SwLATnWGjw-53" value="&lt;p style=&quot;margin:0px;margin-top:4px;text-align:center;&quot;&gt;&lt;b&gt;Sabonete&lt;/b&gt;&lt;/p&gt;&lt;hr size=&quot;1&quot; style=&quot;border-style:solid;&quot;&gt;&lt;p style=&quot;margin:0px;margin-left:4px;&quot;&gt;+ field: Type&lt;/p&gt;&lt;hr size=&quot;1&quot; style=&quot;border-style:solid;&quot;&gt;&lt;p style=&quot;margin:0px;margin-left:4px;&quot;&gt;+ method(): Type&lt;/p&gt;" style="verticalAlign=top;align=left;overflow=fill;html=1;whiteSpace=wrap;" vertex="1" parent="1">
          <mxGeometry x="410" y="760" width="160" height="90" as="geometry" />
        </mxCell>
        <mxCell id="gSGYzmzYV6SwLATnWGjw-56" value="" style="endArrow=block;endFill=0;endSize=12;html=1;rounded=0;entryX=0.995;entryY=0.522;entryDx=0;entryDy=0;exitX=0;exitY=0.5;exitDx=0;exitDy=0;entryPerimeter=0;" edge="1" parent="1">
          <mxGeometry width="160" relative="1" as="geometry">
            <mxPoint x="410.8" y="560" as="sourcePoint" />
            <mxPoint x="200.00000000000006" y="635.068" as="targetPoint" />
            <Array as="points">
              <mxPoint x="360.8" y="560" />
              <mxPoint x="360.8" y="645" />
              <mxPoint x="360.8" y="735" />
              <mxPoint x="360.8" y="800" />
              <mxPoint x="360.8" y="725" />
              <mxPoint x="360.8" y="635" />
              <mxPoint x="340.8" y="635" />
              <mxPoint x="320" y="635" />
            </Array>
          </mxGeometry>
        </mxCell>
        <mxCell id="gSGYzmzYV6SwLATnWGjw-59" value="" style="endArrow=none;html=1;rounded=0;entryX=0.003;entryY=0.445;entryDx=0;entryDy=0;entryPerimeter=0;" edge="1" parent="1">
          <mxGeometry width="50" height="50" relative="1" as="geometry">
            <mxPoint x="359.52" y="800" as="sourcePoint" />
            <mxPoint x="410" y="800.05" as="targetPoint" />
            <Array as="points" />
          </mxGeometry>
        </mxCell>
        <mxCell id="gSGYzmzYV6SwLATnWGjw-60" value="" style="endArrow=none;html=1;rounded=0;entryX=0;entryY=0.5;entryDx=0;entryDy=0;" edge="1" parent="1" target="gSGYzmzYV6SwLATnWGjw-52">
          <mxGeometry width="50" height="50" relative="1" as="geometry">
            <mxPoint x="360" y="685" as="sourcePoint" />
            <mxPoint x="410" y="640" as="targetPoint" />
          </mxGeometry>
        </mxCell>
        <mxCell id="gSGYzmzYV6SwLATnWGjw-61" value="Sistema Para Automação de Empresa de Limpeza" style="text;html=1;align=left;verticalAlign=top;whiteSpace=wrap;rounded=0;fontFamily=Monocraft;fontSource=https%3A%2F%2Fgithub.com%2FIdreesInc%2FMonocraft%2Freleases%2Fdownload%2Fv4.0%2FMonocraft.ttc;fontSize=14;fontStyle=0;horizontal=1;labelBackgroundColor=default;spacingLeft=10;spacingTop=4;" vertex="1" parent="1">
          <mxGeometry width="460" height="30" as="geometry" />
        </mxCell>
        <mxCell id="gSGYzmzYV6SwLATnWGjw-62" value="Nicolas Eisfeld Ferreira 1º Info" style="text;html=1;align=left;verticalAlign=middle;whiteSpace=wrap;rounded=0;fontFamily=Monocraft;fontSource=https%3A%2F%2Fgithub.com%2FIdreesInc%2FMonocraft%2Freleases%2Fdownload%2Fv4.0%2FMonocraft.ttc;fontStyle=2;fontSize=10;labelBackgroundColor=default;spacingLeft=10;" vertex="1" parent="1">
          <mxGeometry y="20" width="280" height="30" as="geometry" />
        </mxCell>
        <mxCell id="gSGYzmzYV6SwLATnWGjw-64" value="Intro. à Desenvolvimento de Sistemas&lt;div&gt;IFRS - Campus Erechim&lt;/div&gt;" style="text;html=1;align=left;verticalAlign=top;whiteSpace=wrap;rounded=0;fontFamily=Monocraft;fontSource=https%3A%2F%2Fgithub.com%2FIdreesInc%2FMonocraft%2Freleases%2Fdownload%2Fv4.0%2FMonocraft.ttc;fontSize=11;fontStyle=0;horizontal=1;labelBackgroundColor=default;spacingLeft=0;spacingTop=4;spacingRight=10;" vertex="1" parent="1">
          <mxGeometry x="547" width="280" height="30" as="geometry" />
        </mxCell>
      </root>
    </mxGraphModel>
  </diagram>
</mxfile>
